<?xml version="1.0" encoding="UTF-8"?>
<!DOCTYPE svg PUBLIC "-//W3C//DTD SVG 1.1//EN" "http://www.w3.org/Graphics/SVG/1.1/DTD/svg11.dtd">
<!-- Creator: CorelDRAW 2020 (64-Bit) -->
<svg xmlns="http://www.w3.org/2000/svg" xml:space="preserve" width="69.4266mm" height="27.0932mm" version="1.1" style="shape-rendering:geometricPrecision; text-rendering:geometricPrecision; image-rendering:optimizeQuality; fill-rule:evenodd; clip-rule:evenodd"
viewBox="0 0 6942.66 2709.32"
 xmlns:xlink="http://www.w3.org/1999/xlink"
 xmlns:xodm="http://www.corel.com/coreldraw/odm/2003">
 <defs>
  <style type="text/css">
   <![CDATA[
    .str0 {stroke:black;stroke-width:20;stroke-miterlimit:22.9256}
    .fil0 {fill:#EB7900}
    .fil1 {fill:black;fill-rule:nonzero}
   ]]>
  </style>
 </defs>
 <g id="Слой_x0020_1">
  <metadata id="CorelCorpID_0Corel-Layer"/>
  <polygon class="fil0 str0" points="201.85,889 1937.51,889 1937.51,2624.66 201.85,2624.66 "/>
  <polygon class="fil0 str0" points="1069.73,50.79 1566.5,469.89 2063.26,889 1069.73,889 76.2,889 572.96,469.89 "/>
  <path class="fil1" d="M2439.58 2640.32l0 -1131.57 255.06 0c67.31,0 128.06,17.78 182.03,53.34 46.36,30.06 79.38,76.62 99.06,139.7 10.8,33.65 16.3,73.66 16.3,120.01 0,75.78 -20.11,136.53 -60.11,182.25 -16.94,19.26 -36.62,34.08 -59.48,44.24 37.89,14.6 69.85,43.18 96.31,85.72 17.35,29 30.27,66.25 38.52,111.97 4.23,23.5 6.35,49.53 6.35,78.53 0,71.55 -13.55,132.29 -40.64,182.25 -20.95,39.16 -50.59,70.48 -89.11,93.77 -43.18,26.45 -86.15,39.79 -128.91,39.79l-315.38 0zm184.15 -168.91l70.91 0c57.36,0 97.15,-29.63 119.38,-89.11 7.83,-20.32 11.64,-43.82 11.64,-70.28 0,-62.86 -12.06,-108.79 -35.98,-137.58 -21.38,-26.46 -53.13,-39.58 -95.04,-39.58l-70.91 0 0 336.55zm0 -500.38l70.91 0c52.7,0 88.05,-26.04 105.83,-77.89 6.56,-19.27 9.95,-42.97 9.95,-71.34 0,-47.2 -11.43,-82.76 -34.08,-106.89 -20.95,-22.22 -48.26,-33.44 -81.7,-33.44l-70.91 0 0 289.56zm807.3 -461.01c95.04,0 164.89,26.25 209.55,78.53 39.16,45.72 58.63,109.43 58.63,191.13l0 164.26c0,80.01 -30.48,147.53 -91.65,202.98l126.36 493.4 -183.51 0 -103.72 -425.66c-4.87,0.21 -9.95,0.21 -15.45,0.21l-99.06 0 0 425.45 -170.18 0 0 -1130.3 269.03 0zm101.81 272.41c0,-65.61 -32.6,-98.42 -97.58,-98.42l-103.08 0 0 361.95 103.08 0c27.1,0 50.17,-9.53 69.01,-28.79 19.05,-19.26 28.57,-42.54 28.57,-69.64l0 -165.1zm517.32 857.89l-170.18 0 0 -1130.3 170.18 0 0 1130.3zm421.22 13.97c-75.14,0 -138.85,-26.46 -191.35,-79.38 -52.7,-52.91 -78.95,-116.41 -78.95,-190.28l0 -616.8c0,-75.14 26.46,-139.07 79.38,-191.56 52.7,-52.7 116.41,-78.95 190.92,-78.95 75.14,0 138.85,26.46 191.13,79.37 52.29,52.92 78.32,116.63 78.32,191.35l0 129.12 -176.53 0 0 -132.72c0,-26.88 -9.52,-50.16 -28.79,-69.42 -19.26,-19.27 -42.33,-28.79 -69.42,-28.79 -27.1,0 -49.96,9.52 -69.01,28.79 -18.83,19.26 -28.36,42.33 -28.36,69.42l0 618.49c0,27.1 9.53,49.96 28.36,69.01 19.05,18.83 41.91,28.36 69.01,28.36 27.09,0 50.16,-9.53 69.42,-28.36 19.27,-18.84 28.79,-41.7 28.79,-68.58l0 -221.83 -95.25 0 0 -171.45 271.78 0 0 394.76c0,75.14 -26.46,138.85 -79.37,191.13 -52.71,52.28 -116.21,78.32 -190.08,78.32zm606.85 -274.32l-41.7 260.35 -177.8 0 192.19 -1130.3 234.53 0 189.44 1130.3 -179.07 0 -39.79 -260.35 -177.8 0zm88.9 -610.87l-63.08 444.5 126.37 0 -63.29 -444.5zm987 600.5c0,74.5 -26.25,138.43 -78.53,191.34 -52.28,52.92 -115.36,79.38 -189.44,79.38l-267.97 0 0 -1131.57 267.97 0c74.51,0 137.8,26.46 189.87,79.37 52.07,52.92 78.1,116.42 78.1,190.5l0 590.98zm-365.76 101.81l102.87 0c27.09,0 49.95,-9.74 68.58,-29.42 18.63,-19.48 27.94,-42.55 27.94,-69.01l0 -591.82c0,-27.09 -9.52,-50.37 -28.36,-69.63 -19.05,-19.27 -41.7,-28.79 -68.16,-28.79l-102.87 0 0 788.67zm702.31 -91.44l-41.7 260.35 -177.8 0 192.19 -1130.3 234.53 0 189.44 1130.3 -179.07 0 -39.79 -260.35 -177.8 0zm88.9 -610.87l-63.08 444.5 126.37 0 -63.29 -444.5z"/>
  <path class="fil1" d="M2609.76 806.44l0 478.79 -170.18 0 0 -1130.3 170.18 0 0 480.06 205.74 0 0 -480.06 170.18 0 0 1130.3 -170.18 0 0 -478.79 -205.74 0zm796.5 -665.48c75.14,0 138.86,26.46 191.35,79.37 52.7,52.92 78.95,116.63 78.95,191.14l0 617.22c0,75.14 -26.46,139.06 -79.37,191.56 -52.71,52.7 -116.42,78.95 -190.93,78.95 -75.14,0 -138.85,-26.46 -191.13,-79.38 -52.28,-52.91 -78.32,-116.62 -78.32,-191.13l0 -617.22c0,-75.14 26.46,-139.07 79.38,-191.56 52.7,-52.7 116.2,-78.95 190.07,-78.95zm92.5 267.55c0,-27.1 -9.52,-49.96 -28.36,-69.01 -19.05,-18.84 -41.91,-28.36 -69.01,-28.36 -27.09,0 -50.16,9.52 -69.42,28.36 -19.26,19.05 -28.79,41.91 -28.79,69.01l0 618.06c0,27.1 9.53,49.96 28.79,69.01 19.26,18.83 42.33,28.36 69.42,28.36 27.1,0 49.96,-9.53 69.01,-28.36 18.84,-19.05 28.36,-41.91 28.36,-69.01l0 -618.06zm498.27 876.72l-170.18 0 0 -1131.57 244.9 0 158.96 814.7 153.25 -814.7 234.1 0 0 1131.57 -170.18 0 0 -710.78 -148.38 710.78 -137.16 0 -165.31 -708.87 0 708.87zm773.22 0l0 -1131.57 485.35 0 0 171.45 -315.17 0 0 308.61 229.87 0 0 171.45 -229.87 0 0 308.61 315.17 0 0 171.45 -485.35 0z"/>
 </g>
</svg>
